<svg width="13" height="14" viewBox="0 0 13 14" fill="none" xmlns="http://www.w3.org/2000/svg">
<path d="M5.84744 1C5.48704 1 5.19488 1.29848 5.19488 1.66667V2.75616C5.19488 3.0387 5.01794 3.28568 4.76992 3.41069C4.61493 3.48881 4.46574 3.57709 4.32317 3.6747C4.09335 3.83203 3.79541 3.86514 3.55582 3.72382L2.6315 3.17863C2.31939 2.99453 1.92029 3.10378 1.74009 3.42265L1.08754 4.57735C0.907336 4.89621 1.01427 5.30394 1.32639 5.48803L2.25078 6.03327C2.49005 6.1744 2.61105 6.45404 2.59306 6.7357C2.58749 6.82306 2.58465 6.91119 2.58465 7C2.58465 7.0888 2.58749 7.17693 2.59306 7.2643C2.61105 7.54596 2.49005 7.82559 2.25078 7.96672L1.32639 8.51196C1.01427 8.69606 0.907336 9.10378 1.08754 9.42265L1.74009 10.5773C1.92029 10.8962 2.31939 11.0055 2.6315 10.8214L3.55581 10.2762C3.7954 10.1349 4.09334 10.168 4.32317 10.3253C4.46574 10.4229 4.61493 10.5112 4.76992 10.5893C5.01794 10.7143 5.19488 10.9613 5.19488 11.2438V12.3333C5.19488 12.7015 5.48704 13 5.84744 13H7.15256C7.51296 13 7.80512 12.7015 7.80512 12.3333V11.2438C7.80512 10.9613 7.98206 10.7143 8.23008 10.5893C8.38507 10.5112 8.53426 10.4229 8.67683 10.3253C8.90666 10.168 9.2046 10.1349 9.44419 10.2762L10.3685 10.8214C10.6806 11.0055 11.0797 10.8962 11.2599 10.5773L11.9125 9.42265C12.0927 9.10378 11.9857 8.69606 11.6736 8.51196L10.7492 7.96673C10.5099 7.8256 10.389 7.54596 10.4069 7.2643C10.4125 7.17693 10.4153 7.08881 10.4153 7C10.4153 6.91119 10.4125 6.82306 10.4069 6.7357C10.389 6.45404 10.5099 6.1744 10.7492 6.03327L11.6736 5.48803C11.9857 5.30394 12.0927 4.89621 11.9125 4.57735L11.2599 3.42265C11.0797 3.10378 10.6806 2.99453 10.3685 3.17863L9.44418 3.72382C9.20459 3.86514 8.90665 3.83203 8.67683 3.67469C8.53426 3.57709 8.38507 3.48881 8.23008 3.41069C7.98206 3.28568 7.80512 3.0387 7.80512 2.75616V1.66667C7.80512 1.29848 7.51296 1 7.15256 1H5.84744Z" stroke="white" stroke-width="2" stroke-linecap="round" stroke-linejoin="round"/>
</svg>
